<?xml version="1.0" standalone="no"?>

<svg version="1.0" xmlns="http://www.w3.org/2000/svg"
 width="500.000000pt" height="500.000000pt" viewBox="0 0 500.000000 500.000000"
 preserveAspectRatio="xMidYMid meet">

<g transform="translate(0.000000,500.000000) scale(0.100000,-0.100000)"
fill="#000000" stroke="none">
<path d="M1799 4819 c-60 -60 -86 -215 -55 -323 10 -32 16 -59 14 -61 -2 -1
-23 -13 -47 -25 -102 -51 -195 -181 -222 -309 -36 -172 27 -392 153 -536 l38
-43 -21 -47 c-45 -101 -33 -259 27 -365 15 -25 32 -71 40 -102 8 -32 27 -88
44 -124 16 -37 30 -70 30 -74 0 -4 -17 -11 -37 -15 -61 -11 -177 -63 -236
-105 -68 -49 -94 -98 -76 -141 25 -62 76 -64 144 -8 82 68 161 101 277 114 56
7 58 7 133 -44 43 -29 111 -62 158 -78 81 -27 86 -28 327 -28 l245 0 86 31
c48 17 119 52 158 78 69 46 73 48 124 41 120 -15 202 -49 286 -120 49 -40 77
-44 115 -14 58 46 15 134 -98 198 -57 33 -187 81 -217 81 -10 0 -19 2 -19 3 0
2 14 31 30 64 17 33 38 91 48 129 9 38 27 85 39 104 74 121 77 307 8 425 -25
43 -25 46 -25 274 l0 230 55 77 c111 155 163 304 172 495 l6 116 -29 22 c-31
24 -41 24 -134 -3 -64 -20 -221 -22 -313 -5 -34 6 -129 28 -212 49 -193 50
-303 64 -435 57 -185 -10 -306 -63 -421 -184 -39 -41 -73 -72 -76 -69 -9 9 16
111 32 132 21 28 18 77 -5 102 -27 29 -83 29 -111 1z m903 -175 c84 -19 194
-45 243 -56 71 -17 123 -22 244 -22 l153 -1 -5 -46 c-8 -68 -51 -187 -91 -257
-77 -130 -209 -240 -349 -290 -102 -36 -259 -38 -365 -3 -92 30 -177 84 -264
169 -73 71 -109 82 -147 48 -29 -26 -67 -121 -91 -227 l-22 -95 -51 -24 c-51
-24 -148 -111 -178 -159 l-15 -24 -42 66 c-69 109 -85 159 -86 262 -1 79 2 97
27 147 37 76 119 151 184 167 95 25 98 27 133 107 64 146 180 238 345 274 67
15 216 1 377 -36z m-437 -709 c137 -98 293 -148 460 -148 120 0 200 18 308 71
l77 38 0 -94 c0 -86 -2 -94 -17 -87 -147 57 -313 37 -429 -51 l-44 -34 -29 21
c-58 43 -153 44 -210 1 l-26 -19 -43 33 c-42 32 -137 74 -167 74 -17 0 -20 16
-6 24 9 6 20 48 41 159 6 31 14 57 16 57 3 0 34 -20 69 -45z m-80 -373 c47
-24 95 -73 121 -122 26 -49 26 -191 0 -240 -107 -203 -402 -197 -495 10 -28
61 -28 159 0 220 33 73 93 126 169 151 44 15 162 4 205 -19z m851 4 c158 -73
203 -290 88 -424 -57 -67 -103 -87 -204 -87 -96 0 -141 18 -196 77 -56 59 -69
94 -69 188 0 96 18 140 77 197 78 75 204 95 304 49z m-526 -51 c9 -11 9 -26
-1 -67 -7 -29 -15 -56 -19 -60 -8 -11 -34 108 -26 127 7 19 30 19 46 0z m3
-327 c37 -120 158 -239 285 -278 69 -21 157 -26 210 -11 17 5 32 6 32 2 0 -20
-78 -107 -131 -146 -110 -81 -143 -89 -397 -93 -202 -3 -229 -2 -290 17 -109
33 -202 99 -265 190 -24 36 -27 43 -11 37 10 -5 51 -11 90 -13 120 -9 231 35
323 127 52 52 106 146 116 203 9 46 16 40 38 -35z"/>
<path d="M1245 2402 c-127 -44 -204 -153 -204 -292 -1 -36 39 -384 88 -775 49
-390 87 -712 85 -715 -11 -10 -100 48 -154 101 -147 144 -182 346 -94 543 83
188 79 176 63 205 -22 38 -61 58 -95 46 -21 -8 -38 -30 -71 -98 -65 -132 -95
-229 -101 -328 -9 -152 43 -310 141 -430 l45 -56 -39 -38 c-50 -48 -62 -91
-58 -197 4 -95 24 -135 87 -179 l36 -24 1490 -3 c820 -1 1506 0 1524 3 42 8
100 59 123 110 34 74 20 224 -26 275 -19 21 -18 23 34 90 102 134 143 327 106
502 -7 37 -44 132 -80 211 -56 122 -71 147 -96 157 -50 21 -109 -15 -109 -66
0 -9 27 -76 59 -148 72 -158 82 -195 82 -291 0 -129 -46 -241 -136 -332 l-54
-53 -65 0 c-36 0 -66 2 -66 5 0 3 41 331 91 728 55 440 89 745 87 782 -6 107
-75 207 -176 257 l-47 23 -1210 2 c-1127 2 -1213 1 -1260 -15z m2419 -141 c47
-11 103 -64 115 -109 12 -43 -164 -1475 -185 -1509 l-14 -23 -1095 0 -1095 0
-10 26 c-6 14 -51 350 -101 747 -99 795 -98 772 -37 829 17 15 44 32 62 37 41
12 2308 13 2360 2z m294 -1803 c16 -16 16 -120 0 -136 -9 -9 -349 -12 -1469
-12 l-1458 0 -15 21 c-19 27 -16 117 5 130 23 14 2922 12 2937 -3z"/>
<path d="M2596 2087 c-18 -18 -51 -139 -181 -657 -87 -349 -158 -646 -157
-659 7 -86 129 -88 151 -3 72 271 311 1249 311 1271 0 20 -9 36 -26 50 -35 27
-69 27 -98 -2z"/>
<path d="M2069 1866 c-15 -8 -135 -104 -268 -215 -240 -200 -261 -224 -247
-269 8 -23 484 -423 519 -436 56 -21 116 32 101 89 -4 17 -75 83 -214 199
l-208 173 203 169 c112 93 209 180 215 193 15 33 -4 77 -41 96 -34 18 -28 18
-60 1z"/>
<path d="M2850 1867 c-33 -17 -55 -57 -47 -88 4 -17 74 -82 211 -195 113 -93
205 -172 205 -176 1 -4 -91 -84 -204 -179 -125 -104 -207 -180 -211 -194 -13
-54 42 -106 97 -92 32 9 500 400 517 432 7 14 10 36 6 50 -5 21 -169 164 -494
430 -25 21 -54 25 -80 12z"/>
</g>
</svg>
